# xmcd
#
# Track frame offsets:
#	150
#	22684
#	40836
#	56585
#	73010
#	92241
#	111246
#	124196
#	142177
#	160657
#	180845
#	194580
#	211907
#	228418
#	245075
#	265507
#
# Disc length: 3766 seconds
#
# Revision: 0
# Processed by: cddbd v1.4PL0 Copyright (c) Steve Scherf et al.
# Submitted via: EasyCDDAExtractor 4.6.9.1
#
DISCID=dd0eb410
DTITLE=Sergio Denis - Himno de Mi Corazon
DYEAR=2000
DGENRE=Latin
TTITLE0=Himno de Mi Corazon
TTITLE1=Cuando llega el Amor
TTITLE2=Tanto Te Amo
TTITLE3=Te quiero cada dia mas
TTITLE4=Un Poco loco
TTITLE5=Atrevete a la Libertad
TTITLE6=Quereme
TTITLE7=Un Amor Total
TTITLE8=Si me Amaras
TTITLE9=Nunca Supe mas de Ti
TTITLE10=Sobre un Vidrio Mojado
TTITLE11=Te Regalo Yo mis Ojos
TTITLE12=Es otro amor
TTITLE13=Es la lluvia que cae
TTITLE14=Inmenso Amor
TTITLE15=Los Domingos (Remix)
EXTD=
EXTT0=
EXTT1=
EXTT2=
EXTT3=
EXTT4=
EXTT5=
EXTT6=
EXTT7=
EXTT8=
EXTT9=
EXTT10=
EXTT11=
EXTT12=
EXTT13=
EXTT14=
EXTT15=
PLAYORDER=
